<?xml version="1.0" encoding="UTF-8" standalone="no"?>
<!DOCTYPE svg PUBLIC "-//W3C//DTD SVG 1.1//EN"
 "http://www.w3.org/Graphics/SVG/1.1/DTD/svg11.dtd">
<!-- Generated by graphviz version 2.43.0 (0)
 -->
<!-- Title: G Pages: 1 -->
<svg width="1000pt" height="617pt"
 viewBox="0.00 0.00 999.77 617.13" xmlns="http://www.w3.org/2000/svg" xmlns:xlink="http://www.w3.org/1999/xlink">
<g id="graph0" class="graph" transform="scale(1 1) rotate(0) translate(4 613.13)">
<title>G</title><style>.edge>path:hover{stroke-width:8}</style>
<polygon fill="white" stroke="transparent" points="-4,4 -4,-613.13 995.77,-613.13 995.77,4 -4,4"/>
<!-- aiohttp -->
<g id="node1" class="node">
<title>aiohttp</title><style>.edge>path:hover{stroke-width:8}</style>
<ellipse fill="#950303" stroke="black" cx="373.09" cy="-127" rx="27.16" ry="18"/>
<text text-anchor="middle" x="373.09" y="-124.5" font-family="Helvetica,sans-Serif" font-size="10.00" fill="#ffffff">aiohttp</text>
</g>
<!-- mailcat_py -->
<g id="node15" class="node">
<title>mailcat_py</title><style>.edge>path:hover{stroke-width:8}</style>
<ellipse fill="#569f56" stroke="black" cx="702.09" cy="-18" rx="36.49" ry="18"/>
<text text-anchor="middle" x="702.09" y="-15.5" font-family="Helvetica,sans-Serif" font-size="10.00" fill="#000000">mailcat.py</text>
</g>
<!-- aiohttp&#45;&gt;mailcat_py -->
<g id="edge1" class="edge">
<title>aiohttp&#45;&gt;mailcat_py</title><style>.edge>path:hover{stroke-width:8}</style>
<path fill="none" stroke="black" d="M400.26,-126.25C472.63,-126.26 666.95,-121.66 702.09,-73"/>
<path fill="none" stroke="black" d="M702.09,-72C707.36,-64.71 708.6,-55.26 708.13,-46.36"/>
<polygon fill="#950303" stroke="black" points="711.59,-45.84 706.92,-36.33 704.64,-46.68 711.59,-45.84"/>
</g>
<!-- aiohttp_client -->
<g id="node2" class="node">
<title>aiohttp_client</title><style>.edge>path:hover{stroke-width:8}</style>
<ellipse fill="#8a2e2e" stroke="black" cx="373.09" cy="-280.64" rx="42.27" ry="18"/>
<text text-anchor="middle" x="373.09" y="-278.14" font-family="Helvetica,sans-Serif" font-size="10.00" fill="#ffffff">aiohttp.client</text>
</g>
<!-- aiohttp_client&#45;&gt;aiohttp -->
<g id="edge2" class="edge">
<title>aiohttp_client&#45;&gt;aiohttp</title><style>.edge>path:hover{stroke-width:8}</style>
<path fill="none" stroke="black" d="M344.96,-267.16C302.82,-248.05 229.05,-212.73 237.09,-203.21"/>
</g>
<!-- aiohttp_tracing -->
<g id="node13" class="node">
<title>aiohttp_tracing</title><style>.edge>path:hover{stroke-width:8}</style>
<ellipse fill="#c04040" stroke="black" cx="373.09" cy="-202.21" rx="34.8" ry="21.43"/>
<text text-anchor="middle" x="373.09" y="-205.21" font-family="Helvetica,sans-Serif" font-size="10.00" fill="#ffffff">aiohttp.</text>
<text text-anchor="middle" x="373.09" y="-194.21" font-family="Helvetica,sans-Serif" font-size="10.00" fill="#ffffff">tracing</text>
</g>
<!-- aiohttp_client&#45;&gt;aiohttp_tracing -->
<g id="edge3" class="edge">
<title>aiohttp_client&#45;&gt;aiohttp_tracing</title><style>.edge>path:hover{stroke-width:8}</style>
<path fill="none" stroke="black" d="M373.09,-252.15C373.09,-246.23 373.09,-239.94 373.09,-233.9"/>
<polygon fill="#8a2e2e" stroke="black" points="369.59,-252.3 373.09,-262.3 376.59,-252.3 369.59,-252.3"/>
<polygon fill="#8a2e2e" stroke="black" points="376.59,-233.46 373.09,-223.46 369.59,-233.46 376.59,-233.46"/>
</g>
<!-- aiohttp_cookiejar -->
<g id="node3" class="node">
<title>aiohttp_cookiejar</title><style>.edge>path:hover{stroke-width:8}</style>
<ellipse fill="#c04040" stroke="black" cx="467.09" cy="-359.07" rx="39.7" ry="21.43"/>
<text text-anchor="middle" x="467.09" y="-362.07" font-family="Helvetica,sans-Serif" font-size="10.00" fill="#ffffff">aiohttp.</text>
<text text-anchor="middle" x="467.09" y="-351.07" font-family="Helvetica,sans-Serif" font-size="10.00" fill="#ffffff">cookiejar</text>
</g>
<!-- aiohttp_cookiejar&#45;&gt;aiohttp -->
<g id="edge4" class="edge">
<title>aiohttp_cookiejar&#45;&gt;aiohttp</title><style>.edge>path:hover{stroke-width:8}</style>
<path fill="none" stroke="black" d="M478.58,-338.76C486.76,-323.77 497.01,-302.15 501.09,-281.64"/>
</g>
<!-- aiohttp_cookiejar&#45;&gt;aiohttp_client -->
<g id="edge5" class="edge">
<title>aiohttp_cookiejar&#45;&gt;aiohttp_client</title><style>.edge>path:hover{stroke-width:8}</style>
<path fill="none" stroke="black" d="M445.76,-340.72C432.18,-329.68 414.47,-315.28 399.93,-303.46"/>
<polygon fill="#c04040" stroke="black" points="401.76,-300.44 391.79,-296.84 397.34,-305.87 401.76,-300.44"/>
</g>
<!-- aiohttp_formdata -->
<g id="node4" class="node">
<title>aiohttp_formdata</title><style>.edge>path:hover{stroke-width:8}</style>
<ellipse fill="#964040" stroke="black" cx="95.09" cy="-202.21" rx="38.78" ry="21.43"/>
<text text-anchor="middle" x="95.09" y="-205.21" font-family="Helvetica,sans-Serif" font-size="10.00" fill="#ffffff">aiohttp.</text>
<text text-anchor="middle" x="95.09" y="-194.21" font-family="Helvetica,sans-Serif" font-size="10.00" fill="#ffffff">formdata</text>
</g>
<!-- aiohttp_formdata&#45;&gt;aiohttp -->
<g id="edge6" class="edge">
<title>aiohttp_formdata&#45;&gt;aiohttp</title><style>.edge>path:hover{stroke-width:8}</style>
<path fill="none" stroke="black" d="M129.46,-192.16C182.82,-178.11 285.02,-151.2 338.51,-137.11"/>
<polygon fill="#964040" stroke="black" points="339.44,-140.48 348.22,-134.55 337.66,-133.71 339.44,-140.48"/>
</g>
<!-- aiohttp_hdrs -->
<g id="node5" class="node">
<title>aiohttp_hdrs</title><style>.edge>path:hover{stroke-width:8}</style>
<ellipse fill="#f31616" stroke="black" cx="203.09" cy="-591.13" rx="40.06" ry="18"/>
<text text-anchor="middle" x="203.09" y="-588.63" font-family="Helvetica,sans-Serif" font-size="10.00" fill="#ffffff">aiohttp.hdrs</text>
</g>
<!-- aiohttp_hdrs&#45;&gt;aiohttp -->
<g id="edge7" class="edge">
<title>aiohttp_hdrs&#45;&gt;aiohttp</title><style>.edge>path:hover{stroke-width:8}</style>
<path fill="none" stroke="black" d="M243.24,-590.49C324.8,-588.78 508.99,-571.9 590.09,-458.71 601.07,-443.38 597.21,-433.74 590.09,-416.28 576.89,-383.91 532.72,-394.94 535.09,-360.07"/>
</g>
<!-- aiohttp_hdrs&#45;&gt;aiohttp_client -->
<g id="edge8" class="edge">
<title>aiohttp_hdrs&#45;&gt;aiohttp_client</title><style>.edge>path:hover{stroke-width:8}</style>
<path fill="none" stroke="black" d="M140.09,-514.92C140.15,-502.59 148.41,-500.86 159.09,-494.71 220.39,-459.43 256.94,-500.37 314.09,-458.71 355.37,-428.61 366.43,-410.71 373.09,-360.07"/>
<path fill="none" stroke="black" d="M373.09,-358.07C375.07,-341.9 375.15,-323.67 374.7,-309.07"/>
<polygon fill="#f31616" stroke="black" points="378.18,-308.56 374.27,-298.71 371.19,-308.85 378.18,-308.56"/>
</g>
<!-- aiohttp_hdrs&#45;&gt;aiohttp_formdata -->
<g id="edge9" class="edge">
<title>aiohttp_hdrs&#45;&gt;aiohttp_formdata</title><style>.edge>path:hover{stroke-width:8}</style>
<path fill="none" stroke="black" d="M180.25,-576.32C162.14,-563.44 139.9,-542.41 140.09,-516.92"/>
<path fill="none" stroke="black" d="M140.09,-514.92C140.35,-480.46 149.38,-464.77 127.09,-438.49"/>
<path fill="none" stroke="black" d="M127.09,-436.49C75.05,-375.14 34.89,-376.98 6.09,-301.85 -0.66,-284.25 -3.01,-275.94 6.09,-259.43 16.31,-240.89 35.49,-227.62 53.45,-218.65"/>
<polygon fill="#f31616" stroke="black" points="55.09,-221.74 62.67,-214.34 52.12,-215.4 55.09,-221.74"/>
</g>
<!-- aiohttp_helpers -->
<g id="node6" class="node">
<title>aiohttp_helpers</title><style>.edge>path:hover{stroke-width:8}</style>
<ellipse fill="#ef0606" stroke="black" cx="203.09" cy="-515.92" rx="34.8" ry="21.43"/>
<text text-anchor="middle" x="203.09" y="-518.92" font-family="Helvetica,sans-Serif" font-size="10.00" fill="#ffffff">aiohttp.</text>
<text text-anchor="middle" x="203.09" y="-507.92" font-family="Helvetica,sans-Serif" font-size="10.00" fill="#ffffff">helpers</text>
</g>
<!-- aiohttp_hdrs&#45;&gt;aiohttp_helpers -->
<g id="edge10" class="edge">
<title>aiohttp_hdrs&#45;&gt;aiohttp_helpers</title><style>.edge>path:hover{stroke-width:8}</style>
<path fill="none" stroke="black" d="M203.09,-572.78C203.09,-565.21 203.09,-556.09 203.09,-547.44"/>
<polygon fill="#f31616" stroke="black" points="206.59,-547.26 203.09,-537.26 199.59,-547.26 206.59,-547.26"/>
</g>
<!-- aiohttp_multipart -->
<g id="node8" class="node">
<title>aiohttp_multipart</title><style>.edge>path:hover{stroke-width:8}</style>
<ellipse fill="#a13535" stroke="black" cx="237.09" cy="-280.64" rx="38.37" ry="21.43"/>
<text text-anchor="middle" x="237.09" y="-283.64" font-family="Helvetica,sans-Serif" font-size="10.00" fill="#ffffff">aiohttp.</text>
<text text-anchor="middle" x="237.09" y="-272.64" font-family="Helvetica,sans-Serif" font-size="10.00" fill="#ffffff">multipart</text>
</g>
<!-- aiohttp_hdrs&#45;&gt;aiohttp_multipart -->
<g id="edge11" class="edge">
<title>aiohttp_hdrs&#45;&gt;aiohttp_multipart</title><style>.edge>path:hover{stroke-width:8}</style>
<path fill="none" stroke="black" d="M140.09,-514.92C140.31,-470.9 194.74,-481.71 203.09,-438.49"/>
<path fill="none" stroke="black" d="M203.09,-436.49C211.49,-393.03 222.76,-343.06 229.97,-311.92"/>
<polygon fill="#f31616" stroke="black" points="233.39,-312.64 232.25,-302.11 226.58,-311.06 233.39,-312.64"/>
</g>
<!-- aiohttp_payload -->
<g id="node9" class="node">
<title>aiohttp_payload</title><style>.edge>path:hover{stroke-width:8}</style>
<ellipse fill="#ca1616" stroke="black" cx="140.09" cy="-359.07" rx="35.21" ry="21.43"/>
<text text-anchor="middle" x="140.09" y="-362.07" font-family="Helvetica,sans-Serif" font-size="10.00" fill="#ffffff">aiohttp.</text>
<text text-anchor="middle" x="140.09" y="-351.07" font-family="Helvetica,sans-Serif" font-size="10.00" fill="#ffffff">payload</text>
</g>
<!-- aiohttp_hdrs&#45;&gt;aiohttp_payload -->
<g id="edge12" class="edge">
<title>aiohttp_hdrs&#45;&gt;aiohttp_payload</title><style>.edge>path:hover{stroke-width:8}</style>
<path fill="none" stroke="black" d="M140.09,-514.92C140.26,-479.18 172.04,-473.55 165.09,-438.49"/>
<path fill="none" stroke="black" d="M165.09,-436.49C161.95,-420.62 156.53,-403.46 151.54,-389.43"/>
<polygon fill="#f31616" stroke="black" points="154.74,-388.01 148.02,-379.83 148.17,-390.42 154.74,-388.01"/>
</g>
<!-- aiohttp_helpers&#45;&gt;aiohttp -->
<g id="edge13" class="edge">
<title>aiohttp_helpers&#45;&gt;aiohttp</title><style>.edge>path:hover{stroke-width:8}</style>
<path fill="none" stroke="black" d="M371.09,-436.49C381.38,-429.69 379.56,-422.7 390.09,-416.28 439.82,-385.97 466.36,-410.59 516.09,-380.28 526.62,-373.86 534.26,-372.37 535.09,-360.07"/>
<path fill="none" stroke="black" d="M535.09,-358.07C537.61,-320.97 493.84,-318.1 501.09,-281.64"/>
</g>
<!-- aiohttp_helpers&#45;&gt;aiohttp_client -->
<g id="edge14" class="edge">
<title>aiohttp_helpers&#45;&gt;aiohttp_client</title><style>.edge>path:hover{stroke-width:8}</style>
<path fill="none" stroke="black" d="M233.93,-506.12C264.03,-496.8 310.52,-480.43 347.09,-458.71 359.08,-451.58 359.46,-446.18 371.09,-438.49"/>
<path fill="none" stroke="black" d="M371.09,-436.49C399.43,-417.75 368.66,-393.75 373.09,-360.07"/>
</g>
<!-- aiohttp_helpers&#45;&gt;aiohttp_cookiejar -->
<g id="edge15" class="edge">
<title>aiohttp_helpers&#45;&gt;aiohttp_cookiejar</title><style>.edge>path:hover{stroke-width:8}</style>
<path fill="none" stroke="black" d="M371.09,-436.49C381.38,-429.69 380.85,-424.44 390.09,-416.28 403.96,-404.03 420.4,-391.76 434.52,-381.82"/>
<polygon fill="#ef0606" stroke="black" points="436.75,-384.53 442.97,-375.96 432.76,-378.78 436.75,-384.53"/>
</g>
<!-- aiohttp_helpers&#45;&gt;aiohttp_formdata -->
<g id="edge16" class="edge">
<title>aiohttp_helpers&#45;&gt;aiohttp_formdata</title><style>.edge>path:hover{stroke-width:8}</style>
<path fill="none" stroke="black" d="M184.45,-497.77C168.53,-482.76 145.37,-460.04 127.09,-438.49"/>
</g>
<!-- aiohttp_helpers&#45;&gt;aiohttp_multipart -->
<g id="edge17" class="edge">
<title>aiohttp_helpers&#45;&gt;aiohttp_multipart</title><style>.edge>path:hover{stroke-width:8}</style>
<path fill="none" stroke="black" d="M201.01,-494.61C199.92,-479.09 199.46,-457.25 203.09,-438.49"/>
</g>
<!-- aiohttp_helpers&#45;&gt;aiohttp_payload -->
<g id="edge18" class="edge">
<title>aiohttp_helpers&#45;&gt;aiohttp_payload</title><style>.edge>path:hover{stroke-width:8}</style>
<path fill="none" stroke="black" d="M190.21,-496.16C180.9,-481.29 169.27,-459.57 165.09,-438.49"/>
</g>
<!-- aiohttp_resolver -->
<g id="node11" class="node">
<title>aiohttp_resolver</title><style>.edge>path:hover{stroke-width:8}</style>
<ellipse fill="#b34c4c" stroke="black" cx="435.09" cy="-437.49" rx="36.12" ry="21.43"/>
<text text-anchor="middle" x="435.09" y="-440.49" font-family="Helvetica,sans-Serif" font-size="10.00" fill="#ffffff">aiohttp.</text>
<text text-anchor="middle" x="435.09" y="-429.49" font-family="Helvetica,sans-Serif" font-size="10.00" fill="#ffffff">resolver</text>
</g>
<!-- aiohttp_helpers&#45;&gt;aiohttp_resolver -->
<g id="edge19" class="edge">
<title>aiohttp_helpers&#45;&gt;aiohttp_resolver</title><style>.edge>path:hover{stroke-width:8}</style>
<path fill="none" stroke="black" d="M233.94,-506.25C270.36,-495.83 332.59,-477.39 385.09,-458.71 389.01,-457.31 393.08,-455.79 397.12,-454.23"/>
<polygon fill="#ef0606" stroke="black" points="398.41,-457.49 406.43,-450.56 395.84,-450.97 398.41,-457.49"/>
</g>
<!-- aiohttp_streams -->
<g id="node12" class="node">
<title>aiohttp_streams</title><style>.edge>path:hover{stroke-width:8}</style>
<ellipse fill="#d92626" stroke="black" cx="268.09" cy="-437.49" rx="36.54" ry="21.43"/>
<text text-anchor="middle" x="268.09" y="-440.49" font-family="Helvetica,sans-Serif" font-size="10.00" fill="#ffffff">aiohttp.</text>
<text text-anchor="middle" x="268.09" y="-429.49" font-family="Helvetica,sans-Serif" font-size="10.00" fill="#ffffff">streams</text>
</g>
<!-- aiohttp_helpers&#45;&gt;aiohttp_streams -->
<g id="edge20" class="edge">
<title>aiohttp_helpers&#45;&gt;aiohttp_streams</title><style>.edge>path:hover{stroke-width:8}</style>
<path fill="none" stroke="black" d="M218.5,-496.81C226.69,-487.17 236.92,-475.15 245.95,-464.53"/>
<polygon fill="#ef0606" stroke="black" points="248.76,-466.62 252.57,-456.74 243.43,-462.09 248.76,-466.62"/>
</g>
<!-- aiohttp_worker -->
<g id="node14" class="node">
<title>aiohttp_worker</title><style>.edge>path:hover{stroke-width:8}</style>
<ellipse fill="#ac4949" stroke="black" cx="535.09" cy="-437.49" rx="45.83" ry="18"/>
<text text-anchor="middle" x="535.09" y="-434.99" font-family="Helvetica,sans-Serif" font-size="10.00" fill="#ffffff">aiohttp.worker</text>
</g>
<!-- aiohttp_helpers&#45;&gt;aiohttp_worker -->
<g id="edge21" class="edge">
<title>aiohttp_helpers&#45;&gt;aiohttp_worker</title><style>.edge>path:hover{stroke-width:8}</style>
<path fill="none" stroke="black" d="M236.31,-509.86C288.7,-501.5 393.46,-483.26 480.09,-458.71 484.74,-457.39 489.56,-455.86 494.32,-454.25"/>
<polygon fill="#ef0606" stroke="black" points="495.68,-457.49 503.95,-450.87 493.36,-450.88 495.68,-457.49"/>
</g>
<!-- aiohttp_http -->
<g id="node7" class="node">
<title>aiohttp_http</title><style>.edge>path:hover{stroke-width:8}</style>
<ellipse fill="#cc3333" stroke="black" cx="307.09" cy="-359.07" rx="38.03" ry="18"/>
<text text-anchor="middle" x="307.09" y="-356.57" font-family="Helvetica,sans-Serif" font-size="10.00" fill="#ffffff">aiohttp.http</text>
</g>
<!-- aiohttp_http&#45;&gt;aiohttp -->
<g id="edge22" class="edge">
<title>aiohttp_http&#45;&gt;aiohttp</title><style>.edge>path:hover{stroke-width:8}</style>
<path fill="none" stroke="black" d="M341.4,-350.87C394.02,-338.89 489.8,-313.07 501.09,-281.64"/>
<path fill="none" stroke="black" d="M501.09,-279.64C522.45,-220.16 447.47,-168.06 403.25,-143.3"/>
<polygon fill="#cc3333" stroke="black" points="404.78,-140.15 394.33,-138.44 401.44,-146.3 404.78,-140.15"/>
</g>
<!-- aiohttp_http&#45;&gt;aiohttp_client -->
<g id="edge23" class="edge">
<title>aiohttp_http&#45;&gt;aiohttp_client</title><style>.edge>path:hover{stroke-width:8}</style>
<path fill="none" stroke="black" d="M320.77,-342.23C329.91,-331.64 342.11,-317.52 352.42,-305.57"/>
<polygon fill="#cc3333" stroke="black" points="355.32,-307.57 359.21,-297.72 350.02,-303 355.32,-307.57"/>
</g>
<!-- aiohttp_http&#45;&gt;aiohttp_multipart -->
<g id="edge24" class="edge">
<title>aiohttp_http&#45;&gt;aiohttp_multipart</title><style>.edge>path:hover{stroke-width:8}</style>
<path fill="none" stroke="black" d="M292.59,-342.23C283.41,-332.21 271.33,-319.03 260.79,-307.51"/>
<polygon fill="#cc3333" stroke="black" points="263.13,-304.88 253.79,-299.87 257.96,-309.61 263.13,-304.88"/>
</g>
<!-- aiohttp_multipart&#45;&gt;aiohttp -->
<g id="edge25" class="edge">
<title>aiohttp_multipart&#45;&gt;aiohttp</title><style>.edge>path:hover{stroke-width:8}</style>
<path fill="none" stroke="black" d="M230.64,-259.67C226.51,-242.67 224.07,-218.61 237.09,-203.21"/>
</g>
<!-- aiohttp_multipart&#45;&gt;aiohttp_formdata -->
<g id="edge26" class="edge">
<title>aiohttp_multipart&#45;&gt;aiohttp_formdata</title><style>.edge>path:hover{stroke-width:8}</style>
<path fill="none" stroke="black" d="M210.38,-265.26C188.01,-253.23 155.88,-235.93 131.21,-222.66"/>
<polygon fill="#a13535" stroke="black" points="132.63,-219.44 122.16,-217.78 129.31,-225.61 132.63,-219.44"/>
</g>
<!-- aiohttp_payload&#45;&gt;aiohttp -->
<g id="edge27" class="edge">
<title>aiohttp_payload&#45;&gt;aiohttp</title><style>.edge>path:hover{stroke-width:8}</style>
<path fill="none" stroke="black" d="M20.09,-279.64C20.62,-267.32 28.56,-265.83 39.09,-259.43 117.25,-211.89 178.02,-273.06 237.09,-203.21"/>
<path fill="none" stroke="black" d="M237.09,-201.21C263.93,-169.48 308.11,-149.34 338.81,-138.38"/>
<polygon fill="#ca1616" stroke="black" points="340.33,-141.56 348.66,-135.01 338.06,-134.94 340.33,-141.56"/>
</g>
<!-- aiohttp_payload&#45;&gt;aiohttp_client -->
<g id="edge28" class="edge">
<title>aiohttp_payload&#45;&gt;aiohttp_client</title><style>.edge>path:hover{stroke-width:8}</style>
<path fill="none" stroke="black" d="M170.55,-348.07C211.46,-334.65 284.36,-310.74 330.64,-295.56"/>
<polygon fill="#ca1616" stroke="black" points="331.96,-298.81 340.37,-292.37 329.78,-292.16 331.96,-298.81"/>
</g>
<!-- aiohttp_payload&#45;&gt;aiohttp_formdata -->
<g id="edge29" class="edge">
<title>aiohttp_payload&#45;&gt;aiohttp_formdata</title><style>.edge>path:hover{stroke-width:8}</style>
<path fill="none" stroke="black" d="M106.67,-351.88C70.55,-343.06 18.31,-323.1 20.09,-281.64"/>
<path fill="none" stroke="black" d="M20.09,-279.64C21.13,-255.48 40.48,-236.14 59.26,-222.96"/>
<polygon fill="#ca1616" stroke="black" points="61.36,-225.77 67.78,-217.34 57.5,-219.92 61.36,-225.77"/>
</g>
<!-- aiohttp_payload&#45;&gt;aiohttp_multipart -->
<g id="edge30" class="edge">
<title>aiohttp_payload&#45;&gt;aiohttp_multipart</title><style>.edge>path:hover{stroke-width:8}</style>
<path fill="none" stroke="black" d="M161.14,-341.48C174.77,-330.74 192.72,-316.6 207.75,-304.76"/>
<polygon fill="#ca1616" stroke="black" points="210.06,-307.39 215.75,-298.45 205.73,-301.89 210.06,-307.39"/>
</g>
<!-- aiohttp_payload_streamer -->
<g id="node10" class="node">
<title>aiohttp_payload_streamer</title><style>.edge>path:hover{stroke-width:8}</style>
<ellipse fill="#b34c4c" stroke="black" cx="114.09" cy="-280.64" rx="66.44" ry="21.43"/>
<text text-anchor="middle" x="114.09" y="-283.64" font-family="Helvetica,sans-Serif" font-size="10.00" fill="#ffffff">aiohttp.</text>
<text text-anchor="middle" x="114.09" y="-272.64" font-family="Helvetica,sans-Serif" font-size="10.00" fill="#ffffff">payload_streamer</text>
</g>
<!-- aiohttp_payload&#45;&gt;aiohttp_payload_streamer -->
<g id="edge31" class="edge">
<title>aiohttp_payload&#45;&gt;aiohttp_payload_streamer</title><style>.edge>path:hover{stroke-width:8}</style>
<path fill="none" stroke="black" d="M133.26,-337.99C130.51,-329.89 127.27,-320.38 124.25,-311.5"/>
<polygon fill="#ca1616" stroke="black" points="127.5,-310.19 120.97,-301.85 120.87,-312.45 127.5,-310.19"/>
</g>
<!-- aiohttp_payload_streamer&#45;&gt;aiohttp -->
<g id="edge32" class="edge">
<title>aiohttp_payload_streamer&#45;&gt;aiohttp</title><style>.edge>path:hover{stroke-width:8}</style>
<path fill="none" stroke="black" d="M152.97,-263.34C179.71,-250.43 214.36,-230.09 237.09,-203.21"/>
</g>
<!-- aiohttp_resolver&#45;&gt;aiohttp -->
<g id="edge33" class="edge">
<title>aiohttp_resolver&#45;&gt;aiohttp</title><style>.edge>path:hover{stroke-width:8}</style>
<path fill="none" stroke="black" d="M460.94,-422.69C490.15,-406.22 533.83,-378.6 535.09,-360.07"/>
</g>
<!-- aiohttp_streams&#45;&gt;aiohttp -->
<g id="edge34" class="edge">
<title>aiohttp_streams&#45;&gt;aiohttp</title><style>.edge>path:hover{stroke-width:8}</style>
<path fill="none" stroke="black" d="M241.09,-358.07C246.53,-327.09 274,-331.65 284.09,-301.85 290.14,-283.99 290.52,-277.15 284.09,-259.43 272.98,-228.81 216.06,-228.08 237.09,-203.21"/>
</g>
<!-- aiohttp_streams&#45;&gt;aiohttp_client -->
<g id="edge35" class="edge">
<title>aiohttp_streams&#45;&gt;aiohttp_client</title><style>.edge>path:hover{stroke-width:8}</style>
<path fill="none" stroke="black" d="M241.09,-358.07C244.75,-337.24 295.23,-312.65 332.68,-297.1"/>
<polygon fill="#d92626" stroke="black" points="334.42,-300.17 342.36,-293.16 331.78,-293.68 334.42,-300.17"/>
</g>
<!-- aiohttp_streams&#45;&gt;aiohttp_multipart -->
<g id="edge36" class="edge">
<title>aiohttp_streams&#45;&gt;aiohttp_multipart</title><style>.edge>path:hover{stroke-width:8}</style>
<path fill="none" stroke="black" d="M255.45,-417.5C246.82,-402.31 237.54,-380.3 241.09,-360.07"/>
<path fill="none" stroke="black" d="M241.09,-358.07C243.73,-343.05 243.2,-326.14 241.81,-312.05"/>
<polygon fill="#d92626" stroke="black" points="245.26,-311.43 240.62,-301.9 238.31,-312.24 245.26,-311.43"/>
</g>
<!-- aiohttp_streams&#45;&gt;aiohttp_payload -->
<g id="edge37" class="edge">
<title>aiohttp_streams&#45;&gt;aiohttp_payload</title><style>.edge>path:hover{stroke-width:8}</style>
<path fill="none" stroke="black" d="M243.41,-421.76C223.49,-409.86 195.27,-393.01 173.36,-379.93"/>
<polygon fill="#d92626" stroke="black" points="175.08,-376.88 164.7,-374.76 171.49,-382.89 175.08,-376.88"/>
</g>
<!-- aiohttp_tracing&#45;&gt;aiohttp -->
<g id="edge38" class="edge">
<title>aiohttp_tracing&#45;&gt;aiohttp</title><style>.edge>path:hover{stroke-width:8}</style>
<path fill="none" stroke="black" d="M373.09,-180.82C373.09,-172.97 373.09,-163.86 373.09,-155.45"/>
<polygon fill="#c04040" stroke="black" points="376.59,-155.31 373.09,-145.31 369.59,-155.31 376.59,-155.31"/>
</g>
<!-- aiohttp_worker&#45;&gt;aiohttp -->
<g id="edge40" class="edge">
<title>aiohttp_worker&#45;&gt;aiohttp</title><style>.edge>path:hover{stroke-width:8}</style>
<path fill="none" stroke="black" d="M534.43,-419.47C533.99,-403.97 533.71,-380.45 535.09,-360.07"/>
</g>
<!-- tqdm -->
<g id="node16" class="node">
<title>tqdm</title><style>.edge>path:hover{stroke-width:8}</style>
<ellipse fill="#303091" stroke="black" cx="702.09" cy="-127" rx="27" ry="18"/>
<text text-anchor="middle" x="702.09" y="-124.5" font-family="Helvetica,sans-Serif" font-size="10.00" fill="#ffffff">tqdm</text>
</g>
<!-- tqdm&#45;&gt;mailcat_py -->
<g id="edge41" class="edge">
<title>tqdm&#45;&gt;mailcat_py</title><style>.edge>path:hover{stroke-width:8}</style>
<path fill="none" stroke="black" d="M697.35,-109.16C695.24,-97.89 694.66,-83.29 702.09,-73"/>
</g>
<!-- tqdm__monitor -->
<g id="node17" class="node">
<title>tqdm__monitor</title><style>.edge>path:hover{stroke-width:8}</style>
<ellipse fill="#4747c2" stroke="black" cx="681.09" cy="-359.07" rx="46.51" ry="18"/>
<text text-anchor="middle" x="681.09" y="-356.57" font-family="Helvetica,sans-Serif" font-size="10.00" fill="#ffffff">tqdm._monitor</text>
</g>
<!-- tqdm__monitor&#45;&gt;tqdm -->
<g id="edge42" class="edge">
<title>tqdm__monitor&#45;&gt;tqdm</title><style>.edge>path:hover{stroke-width:8}</style>
<path fill="none" stroke="black" d="M641.02,-349.9C613.54,-342.19 578.48,-327.79 558.09,-301.85 530.5,-266.75 523.5,-245.05 539.09,-203.21"/>
<path fill="none" stroke="black" d="M539.09,-201.21C556.73,-151.52 622.81,-135.54 665.23,-130.41"/>
<polygon fill="#4747c2" stroke="black" points="665.62,-133.89 675.19,-129.35 664.88,-126.93 665.62,-133.89"/>
</g>
<!-- tqdm_std -->
<g id="node22" class="node">
<title>tqdm_std</title><style>.edge>path:hover{stroke-width:8}</style>
<ellipse fill="#2626d9" stroke="black" cx="787.09" cy="-280.64" rx="32.25" ry="18"/>
<text text-anchor="middle" x="787.09" y="-278.14" font-family="Helvetica,sans-Serif" font-size="10.00" fill="#ffffff">tqdm.std</text>
</g>
<!-- tqdm__monitor&#45;&gt;tqdm_std -->
<g id="edge43" class="edge">
<title>tqdm__monitor&#45;&gt;tqdm_std</title><style>.edge>path:hover{stroke-width:8}</style>
<path fill="none" stroke="black" d="M702.03,-342.97C718.52,-331.08 741.64,-314.41 759.62,-301.45"/>
<polygon fill="#4747c2" stroke="black" points="761.91,-304.11 767.97,-295.42 757.82,-298.43 761.91,-304.11"/>
</g>
<!-- tqdm__tqdm_pandas -->
<g id="node18" class="node">
<title>tqdm__tqdm_pandas</title><style>.edge>path:hover{stroke-width:8}</style>
<ellipse fill="#4c4cb3" stroke="black" cx="702.09" cy="-202.21" rx="56.64" ry="21.43"/>
<text text-anchor="middle" x="702.09" y="-205.21" font-family="Helvetica,sans-Serif" font-size="10.00" fill="#ffffff">tqdm.</text>
<text text-anchor="middle" x="702.09" y="-194.21" font-family="Helvetica,sans-Serif" font-size="10.00" fill="#ffffff">_tqdm_pandas</text>
</g>
<!-- tqdm__tqdm_pandas&#45;&gt;tqdm -->
<g id="edge44" class="edge">
<title>tqdm__tqdm_pandas&#45;&gt;tqdm</title><style>.edge>path:hover{stroke-width:8}</style>
<path fill="none" stroke="black" d="M702.09,-180.82C702.09,-172.97 702.09,-163.86 702.09,-155.45"/>
<polygon fill="#4c4cb3" stroke="black" points="705.59,-155.31 702.09,-145.31 698.59,-155.31 705.59,-155.31"/>
</g>
<!-- tqdm_cli -->
<g id="node19" class="node">
<title>tqdm_cli</title><style>.edge>path:hover{stroke-width:8}</style>
<ellipse fill="#4949ac" stroke="black" cx="597.09" cy="-202.21" rx="30.04" ry="18"/>
<text text-anchor="middle" x="597.09" y="-199.71" font-family="Helvetica,sans-Serif" font-size="10.00" fill="#ffffff">tqdm.cli</text>
</g>
<!-- tqdm_cli&#45;&gt;tqdm -->
<g id="edge45" class="edge">
<title>tqdm_cli&#45;&gt;tqdm</title><style>.edge>path:hover{stroke-width:8}</style>
<path fill="none" stroke="black" d="M615.86,-188.12C632.57,-176.48 657.17,-159.32 675.82,-146.32"/>
<polygon fill="#4949ac" stroke="black" points="677.98,-149.08 684.18,-140.49 673.98,-143.34 677.98,-149.08"/>
</g>
<!-- tqdm_gui -->
<g id="node20" class="node">
<title>tqdm_gui</title><style>.edge>path:hover{stroke-width:8}</style>
<ellipse fill="#4c4cb3" stroke="black" cx="847.09" cy="-202.21" rx="31.58" ry="18"/>
<text text-anchor="middle" x="847.09" y="-199.71" font-family="Helvetica,sans-Serif" font-size="10.00" fill="#ffffff">tqdm.gui</text>
</g>
<!-- tqdm_gui&#45;&gt;tqdm -->
<g id="edge46" class="edge">
<title>tqdm_gui&#45;&gt;tqdm</title><style>.edge>path:hover{stroke-width:8}</style>
<path fill="none" stroke="black" d="M824.12,-189.61C799.26,-177.06 759.52,-157 732.18,-143.19"/>
<polygon fill="#4c4cb3" stroke="black" points="733.58,-139.98 723.08,-138.6 730.43,-146.23 733.58,-139.98"/>
</g>
<!-- tqdm_notebook -->
<g id="node21" class="node">
<title>tqdm_notebook</title><style>.edge>path:hover{stroke-width:8}</style>
<ellipse fill="#4c4cb3" stroke="black" cx="944.09" cy="-202.21" rx="47.86" ry="18"/>
<text text-anchor="middle" x="944.09" y="-199.71" font-family="Helvetica,sans-Serif" font-size="10.00" fill="#ffffff">tqdm.notebook</text>
</g>
<!-- tqdm_notebook&#45;&gt;tqdm -->
<g id="edge47" class="edge">
<title>tqdm_notebook&#45;&gt;tqdm</title><style>.edge>path:hover{stroke-width:8}</style>
<path fill="none" stroke="black" d="M911.35,-188.97C903.75,-186.25 895.67,-183.44 888.09,-181 835.81,-164.14 774.38,-147.18 736.85,-137.14"/>
<polygon fill="#4c4cb3" stroke="black" points="737.49,-133.69 726.93,-134.49 735.69,-140.45 737.49,-133.69"/>
</g>
<!-- tqdm_std&#45;&gt;tqdm -->
<g id="edge48" class="edge">
<title>tqdm_std&#45;&gt;tqdm</title><style>.edge>path:hover{stroke-width:8}</style>
<path fill="none" stroke="black" d="M787.28,-262.32C786.75,-241.56 783.39,-206.39 768.09,-181 759.07,-166.03 744.18,-153.53 730.83,-144.43"/>
<polygon fill="#2626d9" stroke="black" points="732.65,-141.44 722.35,-138.96 728.85,-147.32 732.65,-141.44"/>
</g>
<!-- tqdm_std&#45;&gt;tqdm_cli -->
<g id="edge49" class="edge">
<title>tqdm_std&#45;&gt;tqdm_cli</title><style>.edge>path:hover{stroke-width:8}</style>
<path fill="none" stroke="black" d="M759.96,-270.66C729.43,-260.29 678.54,-242.25 636.09,-223.43 633.41,-222.24 630.66,-220.95 627.91,-219.62"/>
<polygon fill="#2626d9" stroke="black" points="629.24,-216.37 618.73,-215.02 626.1,-222.63 629.24,-216.37"/>
</g>
<!-- tqdm_std&#45;&gt;tqdm_gui -->
<g id="edge50" class="edge">
<title>tqdm_std&#45;&gt;tqdm_gui</title><style>.edge>path:hover{stroke-width:8}</style>
<path fill="none" stroke="black" d="M799.52,-263.8C807.89,-253.15 819.07,-238.9 828.49,-226.91"/>
<polygon fill="#2626d9" stroke="black" points="831.25,-229.06 834.68,-219.03 825.75,-224.73 831.25,-229.06"/>
</g>
<!-- tqdm_std&#45;&gt;tqdm_notebook -->
<g id="edge51" class="edge">
<title>tqdm_std&#45;&gt;tqdm_notebook</title><style>.edge>path:hover{stroke-width:8}</style>
<path fill="none" stroke="black" d="M810.6,-268.2C835.99,-255.84 876.82,-235.96 906.64,-221.44"/>
<polygon fill="#2626d9" stroke="black" points="908.45,-224.46 915.91,-216.93 905.38,-218.16 908.45,-224.46"/>
</g>
<!-- tqdm_version -->
<g id="node23" class="node">
<title>tqdm_version</title><style>.edge>path:hover{stroke-width:8}</style>
<ellipse fill="#4747c2" stroke="black" cx="610.09" cy="-280.64" rx="42.94" ry="18"/>
<text text-anchor="middle" x="610.09" y="-278.14" font-family="Helvetica,sans-Serif" font-size="10.00" fill="#ffffff">tqdm.version</text>
</g>
<!-- tqdm_version&#45;&gt;tqdm -->
<g id="edge52" class="edge">
<title>tqdm_version&#45;&gt;tqdm</title><style>.edge>path:hover{stroke-width:8}</style>
<path fill="none" stroke="black" d="M582.9,-266.66C558.86,-253.14 529.04,-230.2 539.09,-203.21"/>
</g>
<!-- tqdm_version&#45;&gt;tqdm_cli -->
<g id="edge53" class="edge">
<title>tqdm_version&#45;&gt;tqdm_cli</title><style>.edge>path:hover{stroke-width:8}</style>
<path fill="none" stroke="black" d="M607.21,-262.68C605.6,-253.25 603.57,-241.28 601.74,-230.56"/>
<polygon fill="#4747c2" stroke="black" points="605.14,-229.66 600.01,-220.39 598.24,-230.84 605.14,-229.66"/>
</g>
</g>
</svg>
